<?xml version="1.0" encoding="utf-8"?>
<!-- Generator: Adobe Illustrator 16.0.3, SVG Export Plug-In . SVG Version: 6.00 Build 0)  -->
<!DOCTYPE svg PUBLIC "-//W3C//DTD SVG 1.1//EN" "http://www.w3.org/Graphics/SVG/1.1/DTD/svg11.dtd">
<svg version="1.1" id="Capa_1" xmlns="http://www.w3.org/2000/svg" xmlns:xlink="http://www.w3.org/1999/xlink" x="0px" y="0px"
	 width="461px" height="61px" viewBox="69.139 389.445 461 61" enable-background="new 69.139 389.445 461 61" xml:space="preserve"
	>
<g id="Layer_1">
</g>
<g id="Layer_2">
	<path fill="#F7FAFC" d="M238.492,413.995c0,0,4.8,5.2,4.899,6.899c0,1.801-4.899,6.999-4.899,6.999s5.199-4.898,6.899-4.898
		c1.699,0,6.898,4.898,6.898,4.898s-4.699-5-4.898-6.898c-0.101-1.601,4.898-7,4.898-7s-5.1,4.8-6.898,4.899
		C243.792,418.995,238.492,413.995,238.492,413.995z"/>
	<g>
		<path fill="#F7FAFC" d="M76.997,397.796h61.298v15.3h-22.898v31.1h-15.4v-31.1H76.997V397.796z"/>
		<path fill="#F7FAFC" d="M142.396,397.796h51.198v12.899h-35.8v4.1h33.6v12.4h-33.6v4.198h35.8v12.899h-51.198V397.796z"/>
		<path fill="#F7FAFC" d="M198.293,444.194v-46.398h15.399v46.398H198.293z"/>
		<path fill="#F7FAFC" d="M249.791,444.194h-31.897v-46.3h31.698c3,0,5.699,0.2,7.999,0.5c2.302,0.301,4.7,1,7.102,2
			c2.398,1,4.398,2.301,5.898,4c1.601,1.7,2.899,3.9,3.899,6.7s1.5,6.101,1.5,9.999c0,3.4-0.5,6.5-1.6,9.3
			c-1.101,2.7-2.399,4.9-4.2,6.601c-1.699,1.7-3.699,3.101-6.101,4.2c-2.3,1.1-4.698,1.899-7,2.3
			C254.692,443.994,252.291,444.194,249.791,444.194z M248.692,431.495c2.399,0,4.5-0.5,6.2-1.4c1.698-0.899,3-2.2,3.8-3.7
			s1.2-3.3,1.2-5.3c0-3.198-0.9-5.698-2.7-7.6c-1.8-1.899-4.601-2.899-8.5-2.899h-15.499v20.999h15.499V431.495L248.692,431.495z"/>
		<path fill="#F7FAFC" d="M278.691,397.796h51.198v12.899h-35.8v4.1h33.6v12.4h-33.6v4.198h35.8v12.899h-51.198V397.796z"/>
		<path fill="#F7FAFC" d="M361.089,397.896c4.1,0,7.698,0.101,10.6,0.301c3,0.199,5.6,0.6,7.899,1.1c2.299,0.5,4.1,1.2,5.5,1.899
			c1.398,0.801,2.5,1.801,3.398,3.101c0.9,1.3,1.5,2.8,1.9,4.399c0.3,1.601,0.5,3.6,0.5,5.899h-16.399c0-0.7-0.101-1.301-0.399-1.7
			c-0.2-0.399-0.801-0.8-1.601-1.199c-0.8-0.4-2.2-0.601-4-0.801c-1.8-0.199-4.2-0.199-7.1-0.199c-3.9,0-6.8,0.1-8.601,0.3
			c-1.8,0.2-3,0.399-3.399,0.7c-0.5,0.3-0.7,0.699-0.7,1.399c0,0.601,0.7,1,1.801,1.199c1.199,0.2,4.699,0.5,10.499,1
			c0.102,0,0.2,0,0.2,0.101c11.6,0.899,18.999,1.801,22.1,2.5c4.101,1,6.699,2.601,7.899,4.999c0.8,1.602,1.2,3.9,1.2,6.9
			c0,2.1-0.102,3.899-0.4,5.199c-0.3,1.399-0.898,2.601-1.7,3.801c-0.898,1.1-1.999,2-3.3,2.699c-1.398,0.601-3.3,1.2-5.699,1.601
			c-2.399,0.399-5.199,0.699-8.3,0.899c-3.1,0.2-7,0.2-11.6,0.2c-3.2,0-5.9,0-8.2-0.101s-4.5-0.2-6.499-0.5c-2-0.2-3.7-0.5-5-0.899
			c-1.3-0.4-2.5-0.801-3.601-1.5c-1.101-0.601-1.899-1.301-2.5-2c-0.601-0.7-1.101-1.7-1.499-2.801c-0.4-1.1-0.7-2.399-0.802-3.6
			c-0.1-1.3-0.198-2.8-0.198-4.6h15.898c0,0.8,0.101,1.3,0.399,1.698c0.2,0.4,0.8,0.7,1.7,1c0.899,0.301,2.199,0.4,3.898,0.5
			c1.7,0.102,4,0.102,7,0.102c0.3,0,0.9,0,1.602,0c4.998,0,8.1-0.102,9.198-0.301c1.101-0.199,1.601-0.699,1.601-1.699
			c0-0.602-0.399-0.9-1.101-1.102c-0.8-0.198-2.8-0.398-6.2-0.6c-2.498-0.2-4.498-0.3-6.1-0.5c-2.6-0.2-4.6-0.4-6-0.5
			c-1.398-0.1-3.1-0.3-5.199-0.6c-2-0.2-3.601-0.5-4.699-0.7c-1.1-0.2-2.301-0.5-3.801-0.9c-1.5-0.398-2.5-0.8-3.3-1.3
			c-0.7-0.5-1.5-1.1-2.399-1.7c-0.899-0.699-1.499-1.398-1.899-2.199s-0.7-1.801-1-2.899c-0.3-1.1-0.4-2.3-0.4-3.5
			c0-1.5,0.102-2.899,0.302-4.199c0.198-1.2,0.5-2.301,0.898-3.3c0.4-1,0.9-1.801,1.7-2.602c0.7-0.699,1.5-1.398,2.2-1.898
			c0.8-0.602,1.8-1,3.1-1.4c1.3-0.399,2.5-0.7,3.8-0.899c1.301-0.199,2.801-0.399,4.7-0.499c1.899-0.102,3.699-0.2,5.499-0.302
			C356.488,397.896,358.589,397.896,361.089,397.896z"/>
		<path fill="#F7FAFC" d="M436.785,397.896l20.8,46.299h-17.8l-3.5-7.801h-22.898l-3.5,7.801h-17.699l20.799-46.299H436.785z
			 M418.785,422.995h12l-6-12.2L418.785,422.995z"/>
		<path fill="#F7FAFC" d="M445.885,397.796h61.298v15.3h-22.899v31.1h-15.299v-31.1h-23v-15.3H445.885z"/>
		<path fill="#F7FAFC" d="M518.282,444.194h-14.1v-11.5h14.1V444.194z"/>
	</g>
</g>
</svg>
